<svg xmlns="http://www.w3.org/2000/svg" data-name="Layer 1" width="786.81995" height="572.25773" viewBox="0 0 786.81995 572.25773" xmlns:xlink="http://www.w3.org/1999/xlink">
    <circle cx="458.32136" cy="74.18162" r="26.70075" fill="#3b82f6"/>
    <path d="M872.03753,661.02307c39.6877-30.22889,58.64352-81.02546,46.77635-129.48234q-.44231-1.806-.93367-3.6038c-7.86742-28.76343-27.33167-56.10058-55.7-65.29129-23.81971-7.71694-49.81962-1.78274-74.66936-4.85149-48.78136-6.02417-86.60057-45.494-113.21115-86.81933-26.61064-41.32546-47.06182-87.58331-82.42157-121.72413-58.28479-56.27536-153.36192-68.39149-225.62671-31.76044C293.98673,254.12142,247.95487,335.39062,249.918,416.38554c1.96322,80.995,50.04632,158.43176,119.87492,199.517,25.65222,15.093,55.32138,25.78522,84.84826,22.04377,25.62011-3.24641,48.89908-17.01264,74.39861-21.09959,40.09115-6.42568,79.92687,11.70084,114.60268,32.82375,34.67571,21.12288,69.07438,46.14207,108.89653,53.33839C803.40229,715.44288,834.84569,689.73147,872.03753,661.02307Z" transform="translate(-206.59003 -163.87114)" fill="#f0f9ff"/>
    <path d="M815.016,219.19108c-.87006-.58-1.75-1.13-2.62006-1.69a380.24008,380.24008,0,0,0-80.31-38.93l-6.54,90.22h-41.46v-102.45c-2.61-.54-5.24-1.05-7.87-1.53v103.98h-42.87v-106.75c-2.66-.31-5.33-.58-8-.81v107.56h-42.87v-107.24c-1.94-.05-3.88-.08-5.82-.08-1.95,0-3.89.03-5.82.08v107.24h-42.87v-107.56c-2.67.23-5.34.5-8,.81v106.75h-42.87v-103.98c-2.63.48-5.26.99-7.87,1.53v102.45h-41.47l-6.54-90.22a380.24008,380.24008,0,0,0-80.31,38.93c-.87006.56-1.75,1.11-2.62006,1.69-37.97,25.94-70.04,61.48-93.87,103.72-.61005,1.07-1.21,2.15-1.8,3.23h611.82c-.59-.08-1.19-1.16-1.8-3.23C885.056,280.67108,853.986,245.13109,815.016,219.19108Z" transform="translate(-206.59003 -163.87114)" fill="#3b82f6"/>
    <path d="M720.476,306.16108c0,48.36-27.75,65.27-61.98,65.27s-61.98-16.91-61.98-65.27,61.98-110,61.98-110S720.476,257.80108,720.476,306.16108Z" transform="translate(-206.59003 -163.87114)" fill="#3b82f6"/>
    <path d="M662.356,364.50108l22.89-32.03c-14.12-7.93-29.41-4.5-44.72.47Z" transform="translate(-206.59003 -163.87114)" fill="#2f2e41"/>
    <path d="M674.846,402.96109c-3.5,11.36-10.06,23.55-16.44,23.55s-15.89-10.64-20.49-21.72c8.78-6.45,17.61-11.61,26.5-15.57C668.446,392.15108,674.846,402.96109,674.846,402.96109Z" transform="translate(-206.59003 -163.87114)" fill="#2f2e41"/>
    <path d="M691.656,501.39111c-1.61,5.24-3.21,10.48-4.82,15.72h-54.8c.68-1.76,1.39-3.51,2.13-5.26,10.39-24.91,26.15-48.36,46.69-67.23,1.79-1.64,3.59-3.24,5.41-4.82,1.81,2.7,3.6,5.41,5.39,8.11C700.516,463.77111,697.116,482.8211,691.656,501.39111Z" transform="translate(-206.59003 -163.87114)" fill="#2f2e41"/>
    <path d="M630.336,501.39111c-5.46-18.57-8.86-37.62-.01-53.48,1.79-2.7,3.58-5.41,5.39-8.11,1.82,1.58,3.62,3.18,5.41,4.82,20.54,18.87,36.3,42.32,46.69,67.23.74,1.75,1.45,3.5,2.13,5.26h-54.8C633.546,511.87109,631.946,506.63109,630.336,501.39111Z" transform="translate(-206.59003 -163.87114)" fill="#2f2e41"/>
    <path d="M678.436,391.0011a79.63767,79.63767,0,0,0-26.49,15.57c-4.23-10.28-7.56-20.22-7.56-20.22s15.87-2.81,29.99-4.08C676.016,385.2311,677.336,388.1111,678.436,391.0011Z" transform="translate(-206.59003 -163.87114)" fill="#2f2e41"/>
    <path d="M611.256,368.88108s-31.86-3.39-19.36,14.11c5.88,8.23,12.57,15.85,19.36,21.72,0,0,14.11-11.77,20.49-21.72Z" transform="translate(-206.59003 -163.87114)" fill="#2f2e41"/>
    <path d="M649.886,317.71109s-31.86-3.39-19.36,14.11c5.88,8.23,12.57,15.85,19.36,21.72,0,0,14.11-11.77,20.49-21.72Z" transform="translate(-206.59003 -163.87114)" fill="#2f2e41"/>
    <path d="M717.206,391.0011a79.63767,79.63767,0,0,1,26.49,15.57c4.23-10.28,7.56-20.22,7.56-20.22s-15.87-2.81-29.99-4.08C719.626,385.2311,718.306,388.1111,717.206,391.0011Z" transform="translate(-206.59003 -163.87114)" fill="#2f2e41"/>
    <path d="M784.386,368.88108s31.86-3.39,19.36,14.11c-5.88,8.23-12.57,15.85-19.36,21.72,0,0-14.11-11.77-20.49-21.72Z" transform="translate(-206.59003 -163.87114)" fill="#2f2e41"/>
    <path d="M745.756,317.71109s31.86-3.39,19.36,14.11c-5.88,8.23-12.57,15.85-19.36,21.72,0,0-14.11-11.77-20.49-21.72Z" transform="translate(-206.59003 -163.87114)" fill="#2f2e41"/>
    <path d="M720.806,402.96109c3.5,11.36,10.06,23.55,16.44,23.55s15.89-10.64,20.49-21.72c-8.78-6.45-17.61-11.61-26.5-15.57C726.476,392.15108,720.806,402.96109,720.806,402.96109Z" transform="translate(-206.59003 -163.87114)" fill="#2f2e41"/>
</svg> 