<svg width="40" height="40" viewBox="0 0 40 40" fill="none" xmlns="http://www.w3.org/2000/svg">
  <!-- 背景 -->
  <rect width="40" height="40" rx="8" fill="url(#gradient)"/>
  
  <!-- 波浪形状，代表"沧海" -->
  <path 
    d="M8 22C8 22 12 18 16 18C20 18 20 26 24 26C28 26 32 22 32 22"
    stroke="white"
    stroke-width="2.5"
    stroke-linecap="round"
  />
  
  <!-- 第二层波浪 -->
  <path 
    d="M8 16C8 16 12 12 16 12C20 12 20 20 24 20C28 20 32 16 32 16"
    stroke="white"
    stroke-width="2.5"
    stroke-linecap="round"
    stroke-opacity="0.5"
  />
  
  <!-- 第三层波浪 -->
  <path 
    d="M8 28C8 28 12 24 16 24C20 24 20 32 24 32C28 32 32 28 32 28"
    stroke="white"
    stroke-width="2.5"
    stroke-linecap="round"
    stroke-opacity="0.3"
  />

  <!-- 渐变定义 -->
  <defs>
    <linearGradient id="gradient" x1="0" y1="0" x2="40" y2="40" gradientUnits="userSpaceOnUse">
      <stop offset="0%" stop-color="#2563EB"/>
      <stop offset="100%" stop-color="#3B82F6"/>
    </linearGradient>
  </defs>
</svg> 