<svg width="32" height="32" viewBox="0 0 32 32" fill="none" xmlns="http://www.w3.org/2000/svg">
  <!-- 背景圆角矩形 -->
  <rect width="32" height="32" rx="8" fill="url(#gradient)" />
  
  <!-- 外层装饰圆环 -->
  <circle 
    cx="16" 
    cy="16" 
    r="13" 
    stroke="white" 
    stroke-width="0.5" 
    stroke-dasharray="1 3" 
    opacity="0.2"
  />
  
  <!-- 内层装饰圆环 -->
  <circle 
    cx="16" 
    cy="16" 
    r="10" 
    stroke="white" 
    stroke-width="0.5" 
    stroke-dasharray="1 2" 
    opacity="0.3"
  />
  
  <!-- HR字母组合 -->
  <g opacity="0.95">
    <!-- H字母 -->
    <path 
      d="M10 8V24" 
      stroke="white" 
      stroke-width="2.5" 
      stroke-linecap="round"
    />
    <path 
      d="M10 16H16" 
      stroke="white" 
      stroke-width="2.5" 
      stroke-linecap="round"
    />
    
    <!-- R字母 -->
    <path 
      d="M16 8V24" 
      stroke="white" 
      stroke-width="2.5" 
      stroke-linecap="round"
    />
    <path 
      d="M16 8H20C22.2091 8 24 9.79086 24 12V12C24 14.2091 22.2091 16 20 16H16" 
      stroke="white" 
      stroke-width="2.5" 
      stroke-linecap="round"
      stroke-linejoin="round"
    />
    <path 
      d="M16 16L23 24" 
      stroke="white" 
      stroke-width="2.5" 
      stroke-linecap="round"
    />
  </g>

  <!-- 装饰光点 -->
  <circle cx="10" cy="8" r="1.5" fill="white" opacity="0.9" />
  <circle cx="23" cy="24" r="1.5" fill="white" opacity="0.9" />
  <circle cx="16" cy="16" r="1" fill="white" opacity="0.6" />
  
  <!-- 科技感装饰线 -->
  <path 
    d="M4 16H7" 
    stroke="white" 
    stroke-width="0.5" 
    stroke-linecap="round" 
    opacity="0.4"
  />
  <path 
    d="M25 16H28" 
    stroke="white" 
    stroke-width="0.5" 
    stroke-linecap="round" 
    opacity="0.4"
  />

  <!-- 渐变定义 -->
  <defs>
    <linearGradient id="gradient" x1="0" y1="0" x2="32" y2="32" gradientUnits="userSpaceOnUse">
      <stop offset="0%" stop-color="#3B82F6"/>
      <stop offset="33%" stop-color="#2563EB"/>
      <stop offset="66%" stop-color="#1D4ED8"/>
      <stop offset="100%" stop-color="#1E40AF"/>
    </linearGradient>
  </defs>
</svg> 